<svg xmlns="http://www.w3.org/2000/svg" width="960" height="640" viewBox="0 0 960 640"><rect width="960" height="640" fill="#e9efec"/><path d="M0 160h960M0 320h960M0 480h960M240 0v640M480 0v640M720 0v640" stroke="#d3dfd9" stroke-width="3"/><rect x="200" y="448" width="560" height="56" rx="24" fill="#bdccc5"/><path d="M300 448V290q0-70 70-70h155v-35h65v100H385v163" fill="#879c93" stroke="#536f63" stroke-width="10" stroke-linejoin="round"/><rect x="405" y="162" width="70" height="58" rx="8" fill="#617f70"/><rect x="368" y="140" width="145" height="26" rx="12" fill="#365d4c"/><circle cx="681" cy="224" r="54" fill="#23583e"/><path d="m655 225 18 18 34-39" fill="none" stroke="#fff" stroke-width="10" stroke-linecap="round"/><text x="480" y="570" text-anchor="middle" font-family="sans-serif" font-size="24" fill="#365d4c">DEMO · REPAIR COMPLETED</text></svg>
